PathFileType	4	(X/Y/Z)	/Users/chandansharma/Desktop/workspace/metashape/projects/dc-pose/DC-ROM/demo_Sports2D/demo_Sports2D_px_person00.trc
DataRate	CameraRate	NumFrames	NumMarkers	Units	OrigDataRate	OrigDataStartFrame	OrigNumFrames
30	30	13	22	m	30	14	28
Frame#	Time	Hip			RHip			RKnee			RAnkle			RBigToe			RSmallToe			RHeel			LHip			LKnee			LAnkle			LBigToe			LSmallToe			LHeel			Neck			Head			Nose			RShoulder			RElbow			RWrist			LShoulder			LElbow			LWrist		
		X1	Y1	Z1	X2	Y2	Z2	X3	Y3	Z3	X4	Y4	Z4	X5	Y5	Z5	X6	Y6	Z6	X7	Y7	Z7	X8	Y8	Z8	X9	Y9	Z9	X10	Y10	Z10	X11	Y11	Z11	X12	Y12	Z12	X13	Y13	Z13	X14	Y14	Z14	X15	Y15	Z15	X16	Y16	Z16	X17	Y17	Z17	X18	Y18	Z18	X19	Y19	Z19	X20	Y20	Z20	X21	Y21	Z21	X22	Y22	Z22
14	3.7011494252873565	641.0102474337309	231.59936595070894	0.0	616.2301778326232	232.12704502391074	0.0	595.4925514576104	317.29403885528376	0.0	583.5351652869296	403.8084332513079	0.0	579.3520164644613	433.4966702528876	0.0	565.7993975618922	430.8102002382513	0.0	586.6882745641196	413.5554042117746	0.0	665.4185891970895	234.1127087361837	0.0	685.2356256940673	318.74009530619355	0.0	702.3518575038503	406.8985262593153	0.0	711.3707047935522	433.65786645241224	0.0	722.3600079428741	430.7384935625783	0.0	699.2690751513112	418.72718893436866	0.0	643.3663773017137	101.44168741710835	0.0	639.6553083658212	46.058732625491146	0.0	638.7373312784457	74.52442974873912	0.0	602.9326227419402	117.79530523160747	0.0	550.187859927783	126.49251826002849	0.0	496.69314770432646	126.45968652760254	0.0	684.8432023144679	118.32661222988514	0.0	740.7070966814682	129.72523856423112	0.0	797.1581429589445	128.94782369780515	0.0
15	3.9655172413793105	640.713760782568	229.76665170648087	0.0	615.967157329339	230.50854572873655	0.0	589.854344589697	316.1942518994397	0.0	572.707031384541	402.6189306505397	0.0	557.9523495833866	431.3724470563459	0.0	547.2450293676983	427.2911263507149	0.0	576.8267061883998	414.1244999101389	0.0	664.8860105397043	232.7253817804678	0.0	687.4575391684141	317.5701067751514	0.0	709.2230948918256	405.49585116041726	0.0	721.7114894260119	431.4015924034592	0.0	731.2997842258071	427.24776625148036	0.0	707.2154579104936	419.00065526761875	0.0	642.4325077823138	100.94765261827108	0.0	638.1921147573998	45.44284104380793	0.0	637.2883875721237	74.60530110390552	0.0	601.6101116617829	115.4297172326454	0.0	547.6234435360681	115.35063017468524	0.0	494.13449112814897	105.32388385841179	0.0	685.1819115287954	116.48340345536214	0.0	740.4663912186634	118.92497108350994	0.0	794.9536912673063	107.20378096325011	0.0
16	4.2298850574712645	640.7342842123021	230.2787918520682	0.0	615.984848270892	230.86617155040813	0.0	584.7239752914687	316.9229093232714	0.0	562.5574972143927	403.10805348046756	0.0	539.801988318421	430.39193744628426	0.0	531.7423325437599	425.183436459278	0.0	567.1513503906887	416.07282186854314	0.0	664.5162377043833	233.46552917959497	0.0	689.8825790714562	317.6367705619702	0.0	714.6284166793021	406.3651654515759	0.0	728.685623312933	431.60746315683883	0.0	737.6709960456277	427.0233927615548	0.0	713.167174481966	421.05672637297624	0.0	641.5229217794993	102.3922724656257	0.0	636.6551412151841	47.519940424017484	0.0	636.340330851986	75.87847001100513	0.0	600.1199245060584	115.31457144419105	0.0	546.0392404629503	106.57589993646334	0.0	495.1409017847576	85.9774943019681	0.0	685.0829869466181	116.83901513332316	0.0	739.2398369517372	110.82117049868727	0.0	787.9934368508183	88.11803928094821	0.0
17	4.494252873563219	640.2375232007744	232.88908127886236	0.0	615.4687770211101	233.02885537923723	0.0	580.1127219787209	319.5781077524463	0.0	553.8939930500267	404.52428982327797	0.0	528.8763430179094	431.3427974268604	0.0	521.9765444763782	425.4572779727272	0.0	558.8890541353724	417.2596468380462	0.0	663.9661304821963	236.254940870333	0.0	692.3410630433716	318.84328975982976	0.0	718.4474487786397	409.7633029883111	0.0	730.4262780798499	434.4667082802166	0.0	740.2067831040911	430.41880854462255	0.0	716.8366260404107	423.81370729784226	0.0	640.5614999545221	105.5867044630628	0.0	635.3425950261246	52.225197295650496	0.0	635.773332907532	78.39949992863222	0.0	598.7948081397813	117.56724805921205	0.0	545.8528544731392	101.07193809592746	0.0	500.39086366241213	69.15286294028637	0.0	684.0740137314012	119.45367559678418	0.0	736.87559335274	106.22332828642078	0.0	776.0722917100527	72.504142270707	0.0
18	4.758620689655173	639.1536675892983	237.30823432673927	0.0	614.5639237991386	237.41663291672728	0.0	575.9369099167853	323.8599566495534	0.0	547.5972718038789	407.75544019727704	0.0	524.5771016904679	435.1977751212336	0.0	517.6816148492796	428.95723742395796	0.0	553.0241049205558	419.65101319630196	0.0	663.0955012881839	240.7971588350762	0.0	694.4416508867214	321.75567266775636	0.0	720.3056823656168	414.9434967280696	0.0	728.6073611431457	439.4965220471467	0.0	739.2891855748028	436.3112593866762	0.0	718.4518752834169	427.7089885476539	0.0	639.5880929219728	111.36787655141634	0.0	634.219841530213	59.16210770437165	0.0	635.1756969145258	83.87222380214035	0.0	598.0746504169833	122.63439094446414	0.0	547.415585934918	99.39367171935669	0.0	510.7835010867575	56.38993570603202	0.0	682.6029256052528	124.31521567239072	0.0	733.3313485564904	105.11672556330308	0.0	759.7001488227626	62.019812446238774	0.0
19	5.022988505747127	637.8044069817543	243.94072128103605	0.0	613.683703049979	244.32112512878822	0.0	572.2176393672637	329.6612091819706	0.0	544.2438140703242	413.64904367474173	0.0	523.7259352005926	440.5805995957029	0.0	516.7465568302717	434.39317963690564	0.0	549.5367094491056	425.5100720497906	0.0	661.8520089925903	246.68714501382004	0.0	695.6799497587535	327.6570000883778	0.0	720.0601159887312	420.7418172567661	0.0	726.3673734408734	445.25997332125553	0.0	736.7870373919334	442.58953394062564	0.0	718.4614600508343	433.1073004580228	0.0	638.4486417273895	120.1632482932093	0.0	633.372634397839	68.08453795381094	0.0	633.9953876759789	93.24760073424676	0.0	598.0031577111695	130.90829581654197	0.0	550.1259654954317	101.27895959153823	0.0	526.4298400566281	49.490666517662184	0.0	680.5543344325262	131.70328993983674	0.0	728.0779922096568	106.83054887130328	0.0	739.5760173109503	58.79998661373937	0.0
20	5.287356321839081	636.4356197248477	253.54248561918538	0.0	612.7899533962078	253.81818400769288	0.0	568.7198583316332	336.82105981204944	0.0	543.3976855168752	420.9194044485896	0.0	524.0473387498248	444.74685859918156	0.0	517.034840313604	438.96713178762354	0.0	547.9293885966366	432.9201840116047	0.0	660.3024552001169	254.65402144776726	0.0	695.924775102946	336.5582000882235	0.0	718.4758570763776	426.351075185165	0.0	725.0899662948791	450.08837258824997	0.0	734.5561234381701	447.23762573797126	0.0	717.3388148812205	438.7242161707875	0.0	637.0413399281535	131.33871336496145	0.0	632.7423735373154	78.6522098336461	0.0	632.2822871095076	105.49617923244715	0.0	597.9030710983786	141.7818114797349	0.0	553.008943667144	106.23573342118692	0.0	546.0472415670497	49.74997313824929	0.0	677.6321200097535	142.06467578546398	0.0	720.9477300890469	110.88778332500422	0.0	716.9316686448018	61.742846656046694	0.0
21	5.551724137931035	635.2682600159628	265.75064238980735	0.0	611.6739728641204	265.4690298773459	0.0	564.8074340658612	344.3239679612908	0.0	543.4482138781099	426.7640964379432	0.0	524.7087282709751	446.9162277359326	0.0	517.3657420583312	441.4071535581778	0.0	547.3110790788413	438.14365752779105	0.0	658.7750650902937	265.71252626663164	0.0	695.5687613462189	346.05952575117266	0.0	716.7487998231978	431.0830786281226	0.0	724.7735540573842	453.1454160464583	0.0	733.4869891276888	449.52863147366224	0.0	715.5832610598334	443.1199036121256	0.0	635.628849739082	143.63340190605513	0.0	631.8728817374966	90.026316344129	0.0	630.9196855740811	118.43989866752989	0.0	597.233659635408	153.35267503164567	0.0	555.8497103926288	113.3133623934525	0.0	566.9132705254344	57.11258801151135	0.0	674.5201655161686	154.2823468185728	0.0	713.028434618958	116.98087117925769	0.0	694.563370582419	67.17903439178727	0.0
22	5.816091954022989	634.2233521736656	278.41367252724126	0.0	610.2757376208406	277.6316830085656	0.0	560.2361009259848	350.2623237935622	0.0	543.2715698078226	429.5297346440386	0.0	524.805054095269	448.13135739345006	0.0	517.373547562905	442.5154367625548	0.0	547.0497563002898	440.1670082251935	0.0	657.6278496572723	278.4131726516903	0.0	695.0839183625579	353.44607590445025	0.0	715.8019956925535	434.26686693116716	0.0	725.4742504172076	454.7994732913154	0.0	733.7537025429821	450.26177894269335	0.0	714.0912912729214	445.92199908832146	0.0	634.4609252045674	155.24117963860024	0.0	630.7616800583946	100.89695139879068	0.0	630.4616118239983	129.75599750457914	0.0	596.403354649188	163.69545159332748	0.0	558.7027980842448	120.66157014951042	0.0	585.0737188076208	68.6720164702786	0.0	672.0551992615361	165.55012522732676	0.0	706.0856834325659	123.97708251939024	0.0	676.8997267040187	73.21677075865371	0.0
23	6.080459770114943	633.2225565954213	288.65278239888073	0.0	608.8917993870638	287.7595618836392	0.0	555.7832374720365	353.2898417418951	0.0	542.9769162364969	430.02815523531626	0.0	523.6564480647648	449.09484624264593	0.0	516.9813551195118	443.33835926782575	0.0	547.1184443712303	440.6375598811246	0.0	657.0440419261333	289.12198199853043	0.0	694.8369095180874	357.7318723527257	0.0	715.8368400001145	436.04692470311164	0.0	726.828952943894	455.99814867285943	0.0	734.841243200364	450.73504194021973	0.0	713.5139537758382	447.30881039724966	0.0	633.5082799224658	163.98169526494513	0.0	630.0108379120297	109.47677408012305	0.0	630.5676560369229	137.80388062106425	0.0	596.0739973307079	171.70399486476921	0.0	560.8126237707087	126.27740825385825	0.0	596.4307612700044	79.03140125414068	0.0	670.5262257947104	173.4531600240486	0.0	701.60718345903	129.4808448248753	0.0	667.9464762175427	78.75661114500048	0.0
24	6.344827586206897	632.7405875000705	294.0764569548747	0.0	608.0150133522507	293.2275795519744	0.0	552.6405202622293	353.94002315292215	0.0	542.717205237376	429.80685073146867	0.0	522.2573210069478	449.5874824742672	0.0	516.4781811797998	443.9411170961025	0.0	547.4182958826314	440.75420642283984	0.0	657.1323688052473	294.7533295224573	0.0	695.0938561363514	359.18583482235204	0.0	716.2383669577109	437.1356730717332	0.0	727.3460581194413	457.11000629177045	0.0	735.4694820388354	451.43456122030256	0.0	713.6214145114451	447.70000786218014	0.0	632.7571990240747	167.8211273933094	0.0	629.8399766983465	113.68606898010151	0.0	630.6528527755539	141.5885623405196	0.0	596.1550770306931	176.1726107029599	0.0	561.084577010409	129.00197028692645	0.0	598.2235414919523	83.88331493067123	0.0	669.9101011098523	176.80525917030067	0.0	700.1460592188038	131.67666827457165	0.0	668.8756831108642	81.29151798983617	0.0
25	6.609195402298851	633.0615730979898	293.13623270319647	0.0	607.7569598016207	292.25010693134544	0.0	551.9263866863489	353.25766735011064	0.0	542.310438958687	429.50226390451246	0.0	521.9660648666955	449.34594210946307	0.0	516.3058611249686	444.0105680520343	0.0	547.611825407533	440.639369220893	0.0	657.8502514454478	293.8444389160224	0.0	695.4531777058304	358.2406593354429	0.0	716.2543504581859	437.4003742465901	0.0	726.004603159544	457.5982822676982	0.0	734.8575546359198	451.72509277062665	0.0	713.9182327829365	447.37025614457593	0.0	632.2266421006058	165.46404985062196	0.0	629.8193801910606	112.07939685210386	0.0	630.2808171385489	139.8571111611196	0.0	596.1243180958854	175.1902131208017	0.0	559.2769973848626	128.58681505445722	0.0	590.5033914230204	82.1905965352214	0.0	669.8654446611572	174.83892546769079	0.0	701.2211318109	130.47759902602016	0.0	678.06663580845	79.23094554621125	0.0
26	6.873563218390805	633.7277804971236	285.66787516044275	0.0	607.9352998410922	284.98731514631976	0.0	554.5999987244879	350.9680225260009	0.0	541.7781024833189	429.31336668872046	0.0	522.6530921310277	448.74148038341434	0.0	516.4160881689915	443.7536444354419	0.0	547.5001315423984	440.66485706435304	0.0	658.9620458386685	286.5292193846759	0.0	694.9060957137706	355.43483888741486	0.0	715.5976895627276	435.96207523274904	0.0	723.6742788036479	456.60747365705765	0.0	733.5069860173522	450.6551356947238	0.0	714.1910379646772	445.98613451209917	0.0	631.6499030368429	156.93841214079004	0.0	629.3923907539048	105.03234632615907	0.0	629.1277886166326	131.58640504762857	0.0	595.8325629026135	167.52003054352588	0.0	556.2686234063583	125.15799217029986	0.0	576.4946959705123	74.92097093871281	0.0	669.8649855218603	167.3530394372047	0.0	703.9074344607818	126.18517427630067	0.0	692.6524548537968	73.63108698251698	0.0
